<svg width="246" height="56" viewBox="0 0 246 56" fill="none" xmlns="http://www.w3.org/2000/svg">
<g clip-path="url(#clip0)">
<path fill-rule="evenodd" clip-rule="evenodd" d="M28.4951 7.77404L23.5791 11.9776C22.9407 10.5306 21.9043 9.298 20.5925 8.42553C19.2807 7.55305 17.7483 7.07721 16.1765 7.05424C10.746 7.05424 7.6021 9.12725 7.6021 15.2599V23.8974C7.6021 26.2008 8.54528 32.2758 14.6903 32.2758C16.4508 32.2701 18.1813 31.8157 19.7205 30.9548C21.2597 30.0939 22.5576 28.8547 23.4933 27.3524L28.7237 31.3545C27.252 33.7151 25.1998 35.6526 22.7662 36.9792C20.3325 38.3059 17.5999 38.9767 14.8332 38.9267C12.9124 39.0459 10.9879 38.7641 9.18029 38.0992C7.37264 37.4342 5.7208 36.4004 4.32822 35.0624C2.93565 33.7245 1.83237 32.1112 1.08749 30.3238C0.342615 28.5363 -0.0278008 26.6132 -0.000551807 24.6748C-0.000551807 18.4558 0.199517 19.6075 0.199517 13.5324C0.329722 10.1801 1.69668 6.99723 4.03304 4.6064C6.36941 2.21556 9.50711 0.788699 12.8325 0.604881C15.8547 0.0989382 18.9581 0.510533 21.7473 1.78724C24.5366 3.06395 26.8855 5.14801 28.4951 7.77404Z" fill="#5E2E27"/>
<path fill-rule="evenodd" clip-rule="evenodd" d="M68.2803 1.2666H75.6829C75.6829 1.2666 75.6829 18.1962 75.6829 22.3998C75.6829 26.6034 77.312 32.3905 82.9997 32.3905C88.6874 32.3905 90.9453 29.7705 90.9453 22.6013V1.49693H98.3765V38.7247H91.8885V35.3561C88.7778 37.7845 84.9629 39.1194 81.0276 39.1566C77.5755 39.0364 74.3076 37.5584 71.9246 35.0394C69.5417 32.5205 68.2334 29.1613 68.2803 25.682C68.2803 17.8795 68.1946 1.2666 68.2803 1.2666Z" fill="#5E2E27"/>
<path fill-rule="evenodd" clip-rule="evenodd" d="M206.987 39.1568H199.527C199.527 39.1568 199.527 22.2272 199.527 18.0236C199.527 13.82 197.898 8.03284 192.21 8.03284C186.523 8.03284 184.265 11.9773 184.265 18.7434V38.8976H176.977V1.69865H183.35V5.06729C183.35 5.06729 185.379 1.00765 193.411 1.26678C195.197 1.19109 196.979 1.48627 198.647 2.134C200.315 2.78173 201.833 3.76815 203.106 5.03193C204.379 6.29571 205.381 7.80982 206.049 9.48015C206.716 11.1505 207.036 12.9413 206.987 14.7413C206.987 22.5151 206.987 39.1568 206.987 39.1568Z" fill="#C7CD1D"/>
<path fill-rule="evenodd" clip-rule="evenodd" d="M44.9881 0.546875H48.818C52.2192 0.569708 55.4729 1.94876 57.8672 4.38229C60.2615 6.81582 61.6015 10.1057 61.5938 13.532V25.7973C61.5939 29.2235 60.2467 32.5103 57.847 34.9384C55.4473 37.3666 52.1906 38.7383 48.7894 38.7536H44.9881C41.5892 38.7308 38.3368 37.3566 35.9387 34.9301C33.5407 32.5036 32.1911 29.2212 32.1836 25.7973V13.532C32.1911 10.108 33.5407 6.82559 35.9387 4.3991C38.3368 1.9726 41.5892 0.59843 44.9881 0.575662V0.546875ZM45.5025 7.05381C43.6058 7.27163 41.8688 8.22752 40.662 9.71753C39.4552 11.2075 38.8743 13.1137 39.0431 15.0291V24.2425C38.8743 26.158 39.4552 28.0641 40.662 29.5541C41.8688 31.0441 43.6058 32 45.5025 32.2178H48.3607C50.2573 32 51.9944 31.0441 53.2012 29.5541C54.408 28.0641 54.9889 26.158 54.82 24.2425V15.0291C54.9889 13.1137 54.408 11.2075 53.2012 9.71753C51.9944 8.22752 50.2573 7.27163 48.3607 7.05381H45.5025Z" fill="#5E2E27"/>
<path fill-rule="evenodd" clip-rule="evenodd" d="M105.465 1.49669V53.6674H113.496V36.3923C113.496 36.3923 115.154 39.0124 122.471 39.0124C125.904 38.9883 129.199 37.6467 131.684 35.2608C134.169 32.875 135.658 29.6243 135.847 26.1712V13.5317C135.847 9.84631 132.731 1.32394 124.414 0.920853C116.097 0.517769 113.696 2.73474 112.667 4.89412V1.38152H105.551L105.465 1.49669ZM119.327 7.08229H122.985C124.882 7.3001 126.619 8.25601 127.826 9.74602C129.033 11.236 129.614 13.1421 129.445 15.0576V24.271C129.614 26.1865 129.033 28.0926 127.826 29.5826C126.619 31.0726 124.882 32.0285 122.985 32.2463H119.327C117.43 32.0285 115.693 31.0726 114.486 29.5826C113.279 28.0926 112.699 26.1865 112.867 24.271V15.0576C112.691 13.1374 113.268 11.2239 114.476 9.7276C115.683 8.23126 117.425 7.27125 119.327 7.0535V7.08229Z" fill="#E52330"/>
<path fill-rule="evenodd" clip-rule="evenodd" d="M143.165 4.00168L146.194 9.04025C148.897 7.32072 152.116 6.61721 155.283 7.05362C156.295 7.03729 157.298 7.2401 158.224 7.64829C159.151 8.05648 159.98 8.66053 160.655 9.41953C161.33 10.1785 161.835 11.0748 162.136 12.0475C162.437 13.0203 162.527 14.0469 162.4 15.0577C159.826 13.4815 156.831 12.7472 153.826 12.9559C151.141 12.8743 148.499 13.6412 146.269 15.1489C144.04 16.6567 142.334 18.8297 141.393 21.3631C140.249 25.9986 140.335 36.8243 149.538 38.6382C158.742 40.4521 163 35.3847 163 35.3847V38.8685H169.26V12.3225C169.26 -0.921699 150.996 -3.16746 143.05 4.03048L143.165 4.00168ZM154.34 18.9734H155.283C156.943 18.9734 158.535 19.6377 159.709 20.8202C160.883 22.0027 161.543 23.6065 161.543 25.2788V26.5456C161.543 28.2179 160.883 29.8218 159.709 31.0042C158.535 32.1867 156.943 32.851 155.283 32.851H154.34C152.682 32.8435 151.095 32.1767 149.922 30.9959C148.75 29.815 148.088 28.2156 148.081 26.5456V25.2788C148.081 23.6065 148.74 22.0027 149.914 20.8202C151.088 19.6377 152.68 18.9734 154.34 18.9734Z" fill="#FBBC43"/>
<path fill-rule="evenodd" clip-rule="evenodd" d="M236.454 3.88646C237.579 2.54164 239.1 1.59315 240.796 1.1789C242.492 0.764661 244.275 0.906256 245.886 1.58311V7.16872C244.856 6.8217 243.755 6.74803 242.689 6.95481C241.622 7.16159 240.627 7.64183 239.798 8.34918C240.652 10.1476 241.101 12.114 241.113 14.1075C241.198 17.4684 239.959 20.7265 237.667 23.1702C235.375 25.614 232.216 27.0448 228.88 27.1502C224.593 27.1502 223.164 27.4381 219.334 32.9086C218.734 34.0602 219.791 33.5996 219.791 33.5996C224.69 32.0008 229.911 31.6739 234.968 32.6494C237.695 33.1473 240.178 34.553 242.017 36.6412C243.857 38.7294 244.948 41.3792 245.115 44.1661C245.286 50.2988 235.969 55.9132 235.969 55.9132L232.767 50.5291C235.826 47.4196 239.913 45.3466 236.026 41.0566C232.139 36.7667 222.564 39.0988 218.077 40.1065C213.589 41.1142 212.589 36.1908 212.989 32.4767C213.356 30.9359 214.025 29.4848 214.958 28.209C215.891 26.9331 217.068 25.8585 218.42 25.0484C216.647 23.8252 215.199 22.183 214.203 20.2657C213.206 18.3483 212.692 16.2142 212.703 14.05C212.619 10.6891 213.858 7.43098 216.15 4.98724C218.442 2.5435 221.6 1.11268 224.936 1.00728H228.909C231.635 1.02175 234.271 1.98844 236.369 3.74249L236.454 3.88646ZM226.48 7.11113C224.644 7.02473 222.848 7.67191 221.483 8.91197C220.118 10.152 219.295 11.8847 219.191 13.7332V15.0577C219.295 16.9062 220.118 18.6389 221.483 19.8789C222.848 21.119 224.644 21.7662 226.48 21.6798H227.594C229.43 21.7662 231.226 21.119 232.591 19.8789C233.955 18.6389 234.779 16.9062 234.882 15.0577V13.7332C234.779 11.8847 233.955 10.152 232.591 8.91197C231.226 7.67191 229.43 7.02473 227.594 7.11113H226.48Z" fill="#61BFE6"/>
</g>
<defs>
<clipPath id="clip0">
<rect width="246" height="56" fill="white"/>
</clipPath>
</defs>
</svg>
